<svg width="6" height="10" viewBox="0 0 6 10" fill="none" xmlns="http://www.w3.org/2000/svg">
<path fill-rule="evenodd" clip-rule="evenodd" d="M5.83997 4.60987L1.29004 0.160158C1.18633 0.0573317 1.04607 -0.000358066 0.900026 1.67239e-06C0.751483 0.00197717 0.60893 0.0591449 0.500002 0.160158L0.170046 0.490236C0.117949 0.539917 0.0764331 0.599352 0.0480974 0.665529C0.0197616 0.731706 0.00512863 0.803014 0.00512863 0.875002C0.00512863 0.94699 0.0197616 1.0183 0.0480974 1.08447C0.0764331 1.15065 0.117949 1.21009 0.170046 1.25977L3.97998 5L0.160036 8.74024C0.0590882 8.84112 0.00162118 8.97741 1.67591e-06 9.12012C-0.000358063 9.26617 0.0572096 9.40605 0.160036 9.50977L0.500002 9.83985C0.603716 9.94267 0.743969 10.0004 0.890016 10C1.03856 9.99803 1.18111 9.94086 1.29004 9.83985L5.83997 5.39014C5.93959 5.28433 5.99661 5.14529 6 5C6.00036 4.85395 5.94279 4.71358 5.83997 4.60987V4.60987Z" fill="#83692B"/>
</svg>
