<?xml version="1.0" encoding="UTF-8"?><!DOCTYPE svg PUBLIC "-//W3C//DTD SVG 1.1//EN" "http://www.w3.org/Graphics/SVG/1.1/DTD/svg11.dtd"><svg xmlns="http://www.w3.org/2000/svg"><symbol id="vi_icon_btn_arrow" viewBox="0 0 6 10">
    <path fill-rule="evenodd" clip-rule="evenodd" d="M5.84 4.61L1.29.16A.552.552 0 0 0 .9 0a.6.6 0 0 0-.4.16L.17.49a.53.53 0 0 0 0 .77L3.98 5 .16 8.74a.546.546 0 0 0 0 .77l.34.33c.104.103.244.16.39.16a.6.6 0 0 0 .4-.16l4.55-4.45a.552.552 0 0 0 0-.78z"/>
</symbol><symbol id="vi_icon_close" viewBox="0 0 16 16">
    <path d="M.007 1.418L1.417.007l14.59 14.589-1.411 1.412L.006 1.418zM14.596.007l1.41 1.411-14.588 14.59-1.411-1.412L14.596.006z"/>
</symbol><symbol id="vi_icon_convar-tel" viewBox="0 0 19 18">
    <path d="M13.69 11.908c-.587-.58-1.322-.58-1.906 0-.446.442-.891.884-1.33 1.333-.12.124-.22.15-.367.068-.288-.158-.595-.285-.872-.457-1.293-.813-2.375-1.858-3.334-3.034-.476-.585-.9-1.21-1.195-1.915-.06-.142-.049-.236.067-.352.446-.43.88-.872 1.319-1.314.61-.615.61-1.334-.004-1.952-.348-.352-.697-.697-1.045-1.049-.36-.36-.715-.723-1.079-1.078-.588-.574-1.322-.574-1.906.003-.45.442-.88.896-1.337 1.33-.424.4-.637.891-.682 1.465-.071.932.157 1.813.48 2.67.658 1.776 1.662 3.353 2.88 4.799a17.825 17.825 0 0 0 5.903 4.618c1.034.502 2.105.888 3.27.951.802.045 1.498-.157 2.056-.782.382-.427.813-.817 1.218-1.225.599-.607.603-1.341.007-1.94-.712-.716-1.427-1.428-2.142-2.14z"/>
    <path d="M12.975 8.922l1.382-.236a6.177 6.177 0 0 0-1.726-3.333A6.144 6.144 0 0 0 9.11 3.596l-.195 1.39a4.767 4.767 0 0 1 2.727 1.36 4.766 4.766 0 0 1 1.333 2.576z"/>
    <path d="M15.136 2.914A10.192 10.192 0 0 0 9.293 0l-.195 1.39a8.837 8.837 0 0 1 5.05 2.517 8.83 8.83 0 0 1 2.476 4.776l1.382-.236a10.266 10.266 0 0 0-2.87-5.533z"/>
</symbol><symbol id="vi_icon_convar-telegram" viewBox="0 0 22 22">
    <path d="M20.694.102c.306.204.408.408.306.714l-2.956 18.043c0 .204-.204.408-.408.51-.102.102-.204.102-.408.102-.102 0-.204 0-.306-.102l-5.3-2.039-2.855 3.466c-.102.204-.306.306-.612.306H7.85c-.102-.102-.306-.102-.408-.306-.102-.102-.102-.306-.102-.408v-4.077L17.432 3.874 5.097 14.578.51 12.64c-.306-.102-.51-.306-.51-.612s.102-.51.408-.713L19.878.101C19.982 0 20.083 0 20.287 0c.102 0 .306 0 .408.102z"/>
</symbol><symbol id="vi_icon_convar-viber" viewBox="0 0 26 26">
    <path d="M24.48 6.25c-.626-2.5-3.334-5.104-5.834-5.625-4.063-.833-8.23-.833-12.188 0-2.5.52-5.208 3.125-5.833 5.625a24.581 24.581 0 0 0 0 10.313c.625 2.291 3.125 4.791 5.52 5.52v2.709c0 .937 1.25 1.458 1.876.729l2.812-2.917h1.771c2.084 0 4.063-.208 6.042-.625 2.5-.52 5.208-3.125 5.833-5.625.73-3.229.73-6.77 0-10.104zm-2.188 9.792c-.417 1.562-2.5 3.541-4.063 3.958-2.187.417-4.27.625-6.458.52h-.104c-.313.313-1.98 2.084-1.98 2.084L7.5 24.792c-.208.208-.417.104-.417-.209v-4.479C7.083 20 6.98 20 6.98 20c-1.77-.417-3.854-2.396-4.27-3.958-.626-3.125-.626-6.25 0-9.271.416-1.667 2.5-3.646 4.166-3.958a29.74 29.74 0 0 1 11.354 0c1.563.312 3.646 2.291 4.063 3.854.625 3.125.625 6.25 0 9.375z"/>
    <path d="M16.042 18.125c-.209-.104-.521-.104-.73-.209-2.291-.937-4.479-2.187-6.145-4.062-.938-1.042-1.667-2.292-2.396-3.542-.209-.729-.417-1.354-.73-1.979-.208-.625.105-1.25.521-1.667.313-.416.73-.729 1.25-.937.417-.208.73-.104 1.042.208.521.73 1.146 1.459 1.563 2.188.312.52.208 1.041-.313 1.458l-.312.313c-.105 0-.209.104-.313.208a.664.664 0 0 0 0 .625c.625 1.667 1.667 2.917 3.334 3.646.312.104.52.208.833.208.52-.104.729-.625 1.041-.937a.817.817 0 0 1 1.146 0c.417.208.73.52 1.146.729.313.208.73.52 1.042.833.312.313.416.625.208 1.042-.312.729-.833 1.25-1.458 1.666-.209.105-.417.105-.73.209.313-.104-.208-.104 0 0z"/>
    <path d="M12.5 4.896C15.52 5 18.02 6.979 18.542 10c.104.521.104 1.042.208 1.563 0 .208-.104.416-.313.416-.208 0-.312-.208-.416-.416 0-.417 0-.834-.104-1.25-.313-2.292-2.084-4.167-4.375-4.48-.313-.104-.73-.104-1.042-.104-.208 0-.52 0-.52-.312 0-.208.103-.417.416-.417 0-.104.104-.104.104-.104s3.02.104 0 0z"/>
    <path d="M17.083 10.938v.208a.326.326 0 0 1-.625 0v-.313c0-.624-.104-1.25-.416-1.874a3.678 3.678 0 0 0-1.459-1.355c-.312-.208-.729-.312-1.146-.312-.208 0-.312 0-.52-.104-.209 0-.313-.209-.313-.417s.104-.313.313-.313c.729 0 1.354.209 1.979.521 1.25.625 1.979 1.667 2.187 3.125v.834c0-.209 0 0 0 0z"/>
    <path d="M15.208 10.834c-.208 0-.416-.105-.416-.417 0-.208 0-.313-.104-.521-.105-.313-.209-.625-.521-.833-.104-.104-.313-.104-.417-.209-.208-.104-.417 0-.52-.104-.21 0-.313-.208-.313-.416 0-.209.208-.313.416-.313 1.146.104 1.98.73 2.084 2.083v.313c.104.312-.104.417-.209.417.104 0-.208 0 0 0z"/>
</symbol><symbol id="vi_icon_convar-whatsapp" viewBox="0 0 24 25">
    <path d="M7.622.927C9.064.309 10.61 0 12.258 0c1.648 0 3.09.309 4.532.927 1.442.618 2.78 1.442 3.81 2.575 1.03 1.03 1.855 2.266 2.473 3.811A11.51 11.51 0 0 1 24 11.845c0 1.546-.309 3.09-.927 4.533a13.483 13.483 0 0 1-2.472 3.81c-1.03 1.03-2.266 1.855-3.811 2.473a11.509 11.509 0 0 1-4.532.927c-2.06 0-3.915-.515-5.666-1.442l-6.489 2.06 2.163-6.386C1.133 15.966.618 13.906.618 11.742c0-1.648.31-3.09.927-4.532A13.483 13.483 0 0 1 4.017 3.4C4.944 2.37 6.18 1.544 7.622.926zm4.636 20.704c1.339 0 2.575-.31 3.81-.824a9.549 9.549 0 0 0 3.09-2.06c.825-.824 1.546-1.957 2.06-3.09.516-1.236.825-2.473.825-3.812s-.31-2.575-.824-3.81a9.545 9.545 0 0 0-2.06-3.09c-.824-.825-1.957-1.546-3.09-2.06-1.236-.516-2.472-.825-3.811-.825-1.34 0-2.576.206-3.812.721-1.236.515-2.266 1.236-3.193 2.06-.927.927-1.545 1.957-2.06 3.09-.515 1.236-.824 2.472-.824 3.811 0 2.164.618 4.018 1.854 5.769L3.09 21.219l3.811-1.236c1.545 1.133 3.4 1.648 5.357 1.648zm2.369-7.52c.412-.514.72-.72.824-.72.103 0 .618.206 1.545.72.927.413 1.339.722 1.442.825v.206c0 .309-.103.72-.31 1.236-.205.412-.514.72-1.132 1.03-.618.309-1.133.412-1.545.412-.618 0-1.545-.31-2.988-.927-1.03-.515-1.956-1.133-2.678-1.854-.72-.721-1.545-1.854-2.369-2.987-.72-1.133-1.133-2.164-1.133-2.988v-.206c0-.927.412-1.75 1.133-2.472.31-.206.618-.412.927-.412h.618c.103.103.31.103.31.206.102.103.205.206.205.412.103.206.206.618.515 1.34.31.72.412 1.132.412 1.132 0 .206-.206.515-.515.927-.309.412-.515.618-.515.721 0 .103 0 .104.103.207.31.72.927 1.441 1.648 2.162.618.516 1.34 1.03 2.37 1.546.103.103.206.103.309.103.103.103.412-.103.824-.618z"/>
</symbol><symbol id="vi_icon_dev_icon" viewBox="0 0 80 30">
    <path d="M0 6.567c0 .57.466 1.025 1.05 1.025h7.227c.583 0 1.05.456 1.05 1.025v19.775c0 .57.466 1.025 1.049 1.025h6.723c.583 0 1.05-.456 1.05-1.025V8.579c0-.57.465-1.025 1.048-1.025h7.229c.582 0 1.049-.455 1.049-1.025V1.291c0-.569-.467-1.024-1.05-1.024H1.165C.467.267 0 .722 0 1.29v5.276z"/>
    <path d="M47.037 7.316c1.81-.152 3.851-.152 4.506 0 .655.114 1.194.19 1.194.114s0-.914.038-1.867c.04-.952.155-2.134.347-2.63.193-.494.5-1.066.732-1.295.231-.228.54-.495.693-.61.154-.114.578-.342.925-.495.346-.152.385-.266.077-.266H33.094c-.886 0-1.579.457-1.579 1.028V28.197c0 .648.462 1.22 1.079 1.22h7.895c.039 0-.154-.724-.423-1.639-.27-.914-.463-2.705-.463-4 .039-1.296.116-2.363.154-2.363h3.428c1.81 0 3.66-.115 4.044-.229.386-.152.77-.572.848-.99.077-.42.115-1.563.115-2.592v-1.943c0-.076-.308-.114-.732-.114h-1.463c-.424 0-1.58-.23-2.58-.458-1.002-.267-2.235-1.105-2.697-1.829-.462-.724-.963-2.172-1.117-3.124-.115-.953-.23-2.02-.23-2.325 0-.305.038-.571.076-.571h.732c.347 0 1.31.076 2.08.152s2.889.038 4.737-.114l.039.038z"/>
    <path d="M71.393 3.379C70.817 1.671 69.356.267 68.165.267H61.362c-.038 0-.269.076-.46.151-.193.076-.5.304-.616.494-.115.19-.23.531-.23.721 0 .19-.115 1.1-.192 2.012-.077.91-.116 2.846-.077 4.403.038 1.556-.308 4.099-.807 5.655-.5 1.594-1.614 3.682-2.46 4.706-.845 1.025-2.19 2.24-2.959 2.771-.769.532-1.422 1.556-1.46 2.354-.039.797-.231 2.125-.385 2.96s-.307 1.518-.346 1.556c0 0-.153.304-.307.683-.154.38-.192.646-.115.646h7.455c.385 0 .807-.304.961-.722.115-.38.27-.948.346-1.176.077-.266.23-.797.346-1.177.115-.38.615-.683 1.153-.683h8.762c.461 0 .961.38 1.076.873.154.456.308.987.346 1.177.039.19.192.645.308 1.024.115.38.576.722 1.037.722h6.495c.538 0 .884-.38.73-.873-.153-.494-.768-2.278-1.345-3.986L71.393 3.38zm-8.147 15.448c-.5 0-.769-.456-.615-.987.154-.531.73-2.391 1.268-4.137l.038-.076a305.305 305.305 0 0 0 1.307-4.289c.192-.645.5-.607.692.038.192.645.768 2.581 1.307 4.289a194.023 194.023 0 0 1 1.23 4.1c.153.53-.039.986-.462.986h-2.306c-.845.076-1.96.076-2.46.076z"/>
    <path d="M56.566 3.505a.809.809 0 1 0-.002-1.618.809.809 0 0 0 .002 1.618z"/>
</symbol><symbol id="vi_icon_insoc_inst" viewBox="0 0 18 18">
    <path fill-rule="evenodd" clip-rule="evenodd" d="M17.957 5.29a6.602 6.602 0 0 0-.418-2.18 4.378 4.378 0 0 0-1.041-1.6A4.473 4.473 0 0 0 14.904.47c-.7-.258-1.438-.4-2.184-.42C11.757.01 11.451 0 9.006 0c-2.445 0-2.75.01-3.71.05a6.558 6.558 0 0 0-2.184.42 4.417 4.417 0 0 0-1.6 1.04c-.455.45-.809.992-1.037 1.59a6.638 6.638 0 0 0-.419 2.19C.01 6.25 0 6.56 0 9s.01 2.75.053 3.71c.014.745.156 1.483.418 2.18.226.603.581 1.15 1.041 1.6.45.457.993.812 1.593 1.04.7.258 1.439.4 2.185.42.959.04 1.266.05 3.71.05s2.75-.01 3.71-.05a6.818 6.818 0 0 0 2.184-.42 4.623 4.623 0 0 0 2.635-2.64 6.55 6.55 0 0 0 .418-2.18c.042-.96.053-1.27.053-3.71s.003-2.75-.043-3.71zm-1.621 7.35a4.954 4.954 0 0 1-.31 1.67 2.992 2.992 0 0 1-1.709 1.71c-.536.197-1.1.302-1.671.31-.949.04-1.234.05-3.636.05s-2.691-.01-3.637-.05a5.039 5.039 0 0 1-1.67-.31 2.947 2.947 0 0 1-1.706-1.71c-.2-.534-.305-1.1-.309-1.67-.043-.95-.053-1.23-.053-3.63s.01-2.69.053-3.64c.006-.57.11-1.135.309-1.67A2.984 2.984 0 0 1 3.706 2a4.815 4.815 0 0 1 1.671-.31c.949-.05 1.234-.06 3.636-.06s2.691.01 3.637.06a4.8 4.8 0 0 1 1.671.31c.392.141.745.37 1.034.67.298.289.527.641.671 1.03.198.535.302 1.1.31 1.67.042.95.053 1.24.053 3.64 0 2.4-.011 2.68-.053 3.63zm-7.33-8.26a4.62 4.62 0 1 0 .017 9.24 4.62 4.62 0 0 0-.02-9.24h.003zm0 7.62a3 3 0 1 1 .005-5.999A3 3 0 0 1 9.003 12h.003zm5.888-7.81a1.08 1.08 0 1 1-2.162 0 1.08 1.08 0 0 1 2.162 0z"/>
</symbol><symbol id="vi_icon_insoc_vk" viewBox="0 0 19 12">
    <path fill-rule="evenodd" clip-rule="evenodd" d="M15.492 6.99c.6.63 1.227 1.23 1.763 1.92.244.304.456.632.632.98a.72.72 0 0 1-.4 1.1h-2.623a1.956 1.956 0 0 1-1.669-.74c-.363-.39-.7-.82-1.049-1.23a2.702 2.702 0 0 0-.472-.46.532.532 0 0 0-.873.23 3.19 3.19 0 0 0-.276 1.32.726.726 0 0 1-.835.88 6.366 6.366 0 0 1-3.752-.87 8.611 8.611 0 0 1-2.525-2.56A35.401 35.401 0 0 1 .09 1.17C-.12.66.033.39.549.38a54.92 54.92 0 0 1 2.567 0 .767.767 0 0 1 .712.58 17.793 17.793 0 0 0 1.74 3.48c.17.297.393.562.657.78A.391.391 0 0 0 6.904 5c.086-.235.137-.48.151-.73.08-.852.065-1.71-.042-2.56a1.03 1.03 0 0 0-.841-.97C5.921.69 5.958.59 6.08.43a.912.912 0 0 1 .8-.43h2.963a.745.745 0 0 1 .635.83v3.56a1.053 1.053 0 0 0 .418.9.557.557 0 0 0 .592-.31c.69-.836 1.252-1.77 1.669-2.77.2-.44.373-.89.54-1.34a.637.637 0 0 1 .67-.5h2.853c.085-.003.17.003.252.02.48.09.612.31.464.82a7.837 7.837 0 0 1-1.134 2.12c-.476.71-.985 1.4-1.457 2.11a1.01 1.01 0 0 0 .14 1.55h.007z"/>
</symbol></svg>