<svg width="18" height="19" viewBox="0 0 18 19" fill="none" xmlns="http://www.w3.org/2000/svg">
<path fill-rule="evenodd" clip-rule="evenodd" d="M17.8023 15.2051L14.2222 11.6055L16.7822 10.2051C16.878 10.1384 16.955 10.0484 17.0058 9.94336C17.0565 9.83828 17.0794 9.72196 17.0722 9.60547C17.0594 9.49711 17.0187 9.39434 16.9538 9.30664C16.8889 9.21894 16.8021 9.14934 16.7022 9.10547L5.32216 4.50586C5.20574 4.48773 5.08675 4.4966 4.97414 4.53125C4.86153 4.5659 4.75835 4.62464 4.67226 4.70508C4.58669 4.77614 4.52664 4.8741 4.50136 4.98242C4.47609 5.09074 4.48696 5.20505 4.53225 5.30664L9.07216 16.7051C9.11412 16.8128 9.18485 16.908 9.27651 16.9785C9.36816 17.049 9.47727 17.0926 9.59218 17.1055C9.70389 17.1105 9.8149 17.086 9.91347 17.0332C10.012 16.9804 10.0946 16.9024 10.1522 16.8066L11.6322 14.2051L15.2022 17.8066C15.3187 17.9202 15.4704 17.9899 15.6322 18.0059C15.7917 17.9918 15.9409 17.9216 16.0523 17.8066L17.8023 16.1055C17.9179 15.9842 17.9824 15.8238 17.9824 15.6562C17.9824 15.4887 17.9179 15.3263 17.8023 15.2051V15.2051ZM15.6322 16.5059L11.9223 12.8066C11.7999 12.7214 11.6498 12.6842 11.5022 12.7051H11.4223C11.3271 12.7044 11.234 12.7335 11.1554 12.7871C11.0768 12.8407 11.0163 12.9171 10.9822 13.0059L9.7322 15.1055L6.17226 6.20508L15.1022 9.70508L12.9422 11.0059C12.8636 11.0421 12.7958 11.0979 12.745 11.168C12.6942 11.238 12.6623 11.3203 12.6522 11.4062C12.6353 11.4972 12.642 11.5902 12.6718 11.6777C12.7015 11.7653 12.7533 11.8445 12.8222 11.9062L16.5322 15.7051L15.6322 16.5059ZM2.64223 1.80664C2.52186 1.70956 2.37182 1.65625 2.21718 1.65625C2.06254 1.65625 1.91263 1.70956 1.79225 1.80664C1.7356 1.85675 1.69015 1.91737 1.65908 1.98633C1.62801 2.05529 1.61196 2.12944 1.61196 2.20508C1.61196 2.28071 1.62801 2.35682 1.65908 2.42578C1.69015 2.49474 1.7356 2.55536 1.79225 2.60547L3.12221 4.00586C3.23993 4.11758 3.39097 4.18703 3.55226 4.20508C3.71117 4.18896 3.85951 4.11906 3.97219 4.00586C4.08785 3.88459 4.15236 3.72422 4.15236 3.55664C4.15236 3.38906 4.08785 3.22674 3.97219 3.10547L2.64223 1.80664ZM3.09218 6.00586C3.09928 5.9204 3.0894 5.83355 3.06301 5.75195C3.03661 5.67036 2.99431 5.59636 2.9385 5.53125C2.88268 5.46614 2.81441 5.41161 2.73781 5.37305C2.66121 5.33448 2.57775 5.3127 2.49221 5.30664H0.602191C0.516647 5.3127 0.433183 5.33448 0.356586 5.37305C0.279989 5.41161 0.211835 5.46614 0.156024 5.53125C0.100214 5.59636 0.0579102 5.67036 0.0315127 5.75195C0.00511522 5.83355 -0.00488027 5.9204 0.00221584 6.00586C0.00769077 6.16325 0.0726214 6.31247 0.183979 6.42383C0.295336 6.53519 0.444804 6.59999 0.602191 6.60547H2.49221C2.64959 6.59999 2.79906 6.53519 2.91042 6.42383C3.02178 6.31247 3.08671 6.16325 3.09218 6.00586ZM2.85219 7.80664L1.51223 9.10547C1.4005 9.22871 1.33864 9.39029 1.33864 9.55664C1.33864 9.72299 1.4005 9.88261 1.51223 10.0059C1.56402 10.0684 1.62895 10.1178 1.70241 10.1523C1.77587 10.1869 1.8561 10.2051 1.93727 10.2051C2.01844 10.2051 2.09856 10.1869 2.17202 10.1523C2.24548 10.1178 2.3104 10.0684 2.3622 10.0059L3.70217 8.70508C3.8139 8.58183 3.87587 8.42221 3.87587 8.25586C3.87587 8.08951 3.8139 7.92989 3.70217 7.80664C3.58179 7.70956 3.43188 7.65625 3.27724 7.65625C3.1226 7.65625 2.97257 7.70956 2.85219 7.80664V7.80664ZM5.94216 3.10547C6.10114 3.10202 6.25286 3.03925 6.36623 2.92773C6.4796 2.81622 6.54619 2.66477 6.55226 2.50586V0.605469C6.55226 0.445013 6.48848 0.291194 6.37502 0.177734C6.26156 0.0642749 6.10762 0 5.94716 0C5.78671 0 5.63289 0.0642749 5.51943 0.177734C5.40597 0.291194 5.34218 0.445013 5.34218 0.605469V2.50586C5.34766 2.66325 5.41271 2.81247 5.52407 2.92383C5.63542 3.03519 5.78477 3.09999 5.94216 3.10547V3.10547ZM8.2322 3.90625C8.39051 3.88804 8.53831 3.81651 8.65224 3.70508L9.99221 2.40625C10.1039 2.283 10.1658 2.12143 10.1658 1.95508C10.1658 1.78873 10.1039 1.62911 9.99221 1.50586C9.87183 1.40878 9.7218 1.35547 9.56716 1.35547C9.41251 1.35547 9.2626 1.40878 9.14223 1.50586L7.80226 2.90625C7.74779 2.95766 7.70437 3.01911 7.6747 3.08789C7.64504 3.15667 7.62966 3.23173 7.62966 3.30664C7.62966 3.38155 7.64504 3.45465 7.6747 3.52344C7.70437 3.59222 7.74779 3.65367 7.80226 3.70508C7.91876 3.81859 8.07033 3.89029 8.2322 3.90625Z" fill="#35BFFF"/>
</svg>
