<svg width="40" height="40" viewBox="0 0 40 40" fill="none" xmlns="http://www.w3.org/2000/svg">
<path fill-rule="evenodd" clip-rule="evenodd" d="M29.602 23.0005C29.522 22.9005 26.602 21.5013 26.092 21.3013C25.8755 21.2179 25.6433 21.1822 25.412 21.1997C25.2087 21.2034 25.01 21.2623 24.8361 21.3677C24.6622 21.473 24.5194 21.6228 24.422 21.8013C24.132 22.2013 23.252 23.2005 22.982 23.5005C22.9783 23.5274 22.9652 23.5525 22.9451 23.5708C22.925 23.5891 22.8991 23.5989 22.872 23.6001C22.6709 23.5172 22.4636 23.4511 22.252 23.4009C19.9132 22.1697 17.9115 20.3831 16.422 18.1997C16.382 18.0997 16.382 18.1001 16.372 18.1001C16.3813 18.0537 16.4029 18.0103 16.4346 17.9751C16.4663 17.9399 16.5069 17.915 16.552 17.9009C16.702 17.7009 16.882 17.5013 17.042 17.3013L17.282 17.0005C17.479 16.7968 17.6381 16.5606 17.752 16.3013L17.8219 16.1001C17.9225 15.9145 17.9718 15.7055 17.9648 15.4946C17.9577 15.2837 17.8947 15.0793 17.782 14.9009C17.712 14.7009 16.482 11.8009 16.352 11.4009C16.2717 11.1059 16.1033 10.8416 15.8692 10.645C15.6351 10.4484 15.3465 10.3293 15.042 10.3013C14.959 10.3176 14.8806 10.3513 14.8121 10.4009C13.9758 10.4534 13.1559 10.6563 12.392 11.0005C11.692 11.4005 10.512 12.8013 10.512 15.3013C10.6576 17.1638 11.3577 18.9398 12.522 20.4009C12.5462 20.439 12.5766 20.4724 12.612 20.5005C14.5896 23.5977 17.4148 26.0616 20.752 27.6001C22.3055 28.3217 23.9747 28.7627 25.6821 28.9009V28.9009C26.0021 28.9009 26.252 28.8013 26.482 28.8013H26.622C27.602 28.7013 29.742 27.6013 30.232 26.3013C30.6021 25.4507 30.6829 24.501 30.462 23.6001C30.2375 23.323 29.9394 23.1155 29.602 23.0005V23.0005ZM20.362 0.000472512C16.9124 -0.0235331 13.5182 0.86755 10.5251 2.5825C7.53192 4.29746 5.04679 6.77409 3.32304 9.76219C1.5993 12.7503 0.69846 16.1427 0.712324 19.5923C0.726188 23.0419 1.65431 26.4267 3.40202 29.4009L0.0320262 39.3013C-0.00232062 39.3867 -0.00925053 39.4792 0.0122508 39.5688C0.0337521 39.6584 0.0826148 39.7407 0.152021 39.8013C0.245415 39.9126 0.377728 39.9833 0.522016 40.0005H0.682051L11.0621 36.6997C13.9295 38.2096 17.1213 38.9997 20.362 39.0005C25.5337 39.0005 30.4936 36.9465 34.1506 33.2895C37.8075 29.6326 39.862 24.6722 39.862 19.5005C39.862 14.3288 37.8075 9.36837 34.1506 5.71141C30.4936 2.05445 25.5337 0.000472512 20.362 0.000472512V0.000472512ZM20.362 34.9009C17.3203 34.938 14.3367 34.0676 11.792 32.4009C11.7574 32.3621 11.7136 32.3324 11.6647 32.3149C11.6158 32.2975 11.5633 32.2932 11.512 32.3013H11.352L6.15202 34.0005L7.83195 29.0005C7.85705 28.9336 7.86379 28.8618 7.85148 28.7915C7.83917 28.7211 7.80832 28.6544 7.76201 28.6001C5.66485 25.7802 4.57962 22.3355 4.68156 18.8227C4.7835 15.31 6.06662 11.9342 8.32377 9.24071C10.5809 6.54722 13.6803 4.69378 17.121 3.97899C20.5618 3.2642 24.143 3.72965 27.2862 5.30125C30.4294 6.87285 32.951 9.45963 34.4436 12.6411C35.9363 15.8226 36.3126 19.4146 35.5121 22.8364C34.7116 26.2582 32.781 29.3093 30.032 31.4985C27.283 33.6877 23.8762 34.8867 20.362 34.9009V34.9009Z" fill="white"/>
</svg>
