<svg width="41" height="24" viewBox="0 0 41 24" fill="none" xmlns="http://www.w3.org/2000/svg">
<path fill-rule="evenodd" clip-rule="evenodd" d="M38.3448 18.7029C37.1548 17.2029 35.7549 16.0033 34.4249 14.6033C33.2349 13.5033 33.1548 12.8041 34.1148 11.4041C35.1648 9.90412 36.2948 8.50373 37.3548 7.00373C38.4321 5.64955 39.2832 4.12989 39.8748 2.50373C39.9818 2.32865 40.0386 2.12688 40.039 1.9217C40.0394 1.71651 39.9833 1.51515 39.877 1.33966C39.7707 1.16418 39.6183 1.0222 39.4362 0.927555C39.2542 0.832914 39.0495 0.79072 38.8448 0.804508H31.9448C31.6189 0.772066 31.292 0.852482 31.0201 1.03498C30.7482 1.21747 30.5482 1.49064 30.4548 1.80451C30.1027 2.75767 29.7023 3.69105 29.2548 4.60334C28.3183 6.71301 27.0675 8.66933 25.5449 10.4041C25.4275 10.6434 25.2378 10.839 25.0028 10.9647C24.7677 11.0903 24.499 11.1388 24.2348 11.1033C23.9343 10.8887 23.692 10.603 23.5296 10.2713C23.3673 9.93961 23.29 9.57195 23.3049 9.20295L23.2949 1.70295C23.3293 1.29139 23.2007 0.884105 22.9371 0.566227C22.6734 0.248348 22.2957 0.0460271 21.8848 0.0037266H15.3049C14.9536 -0.0178532 14.6028 0.0546128 14.2884 0.212711C13.974 0.370809 13.707 0.60928 13.5148 0.904117C13.2448 1.20412 13.1548 1.40373 13.7148 1.50373C14.2092 1.60961 14.6571 1.87026 14.9934 2.24787C15.3296 2.62547 15.5367 3.10001 15.5848 3.60334C15.822 5.36026 15.8557 7.13949 15.6849 8.90412C15.6542 9.45172 15.5395 9.99097 15.3448 10.5037C15.3084 10.6601 15.2302 10.8045 15.1184 10.9197C15.0065 11.035 14.8654 11.1169 14.7102 11.158C14.5549 11.1991 14.3915 11.197 14.2373 11.1522C14.083 11.1074 13.9438 11.022 13.8348 10.9041C13.2509 10.4684 12.7554 9.92574 12.3748 9.30451C10.8123 7.02575 9.51391 4.5759 8.50483 2.00373C8.39946 1.66394 8.19048 1.36538 7.90717 1.15021C7.62387 0.935045 7.28047 0.814821 6.92487 0.804508H1.21479C0.0747896 0.804508 -0.26522 1.40412 0.20478 2.40412C2.17006 7.12592 4.64471 11.6196 7.58478 15.8045C9.02855 18.0005 10.9454 19.844 13.1948 21.2029C15.7274 22.6362 18.6366 23.2649 21.5349 23.0037C22.9149 22.9037 23.3248 22.6029 23.3948 21.2029C23.3847 20.2356 23.5932 19.2796 24.0048 18.4041C24.0784 18.224 24.1932 18.0633 24.3398 17.9354C24.4864 17.8074 24.6609 17.7144 24.8493 17.6658C25.0378 17.6173 25.2349 17.6149 25.4251 17.6561C25.6153 17.6972 25.7933 17.782 25.9448 17.9041C26.3372 18.1898 26.6903 18.526 26.9948 18.9041C27.7748 19.7041 28.5148 20.6037 29.3248 21.5037C29.793 22.0135 30.369 22.4122 31.0107 22.6717C31.6524 22.9312 32.3439 23.0449 33.0349 23.0037H38.8648C39.8048 22.9037 40.2848 21.8029 39.7548 20.7029C39.3599 19.9864 38.887 19.3157 38.3448 18.7029V18.7029Z" fill="white"/>
</svg>
