<svg width="20" height="16" viewBox="0 0 20 16" fill="none" xmlns="http://www.w3.org/2000/svg">
<path fill-rule="evenodd" clip-rule="evenodd" d="M8.24001 3.19829C8.45299 3.09257 8.61739 2.90981 8.69924 2.68657C8.78109 2.46334 8.77423 2.2174 8.68007 1.99907L7.95998 0.499071C7.86014 0.298997 7.68664 0.145951 7.47585 0.0713367C7.26507 -0.00327745 7.03345 0.00597451 6.82998 0.0986804C5.66679 0.561836 4.60146 1.24038 3.68996 2.09868C2.6972 3.02455 1.96893 4.19849 1.57998 5.49907C1.13919 7.16173 0.943837 8.8795 1.00002 10.5987V15.0987C0.997902 15.2149 1.0187 15.3303 1.0613 15.4385C1.1039 15.5467 1.1675 15.6459 1.24831 15.7295C1.32913 15.8131 1.42556 15.8806 1.53225 15.9268C1.63893 15.973 1.75375 15.9972 1.87002 15.9991H7.58999C7.70625 15.9972 7.82107 15.973 7.92776 15.9268C8.03444 15.8806 8.131 15.8131 8.21181 15.7295C8.29263 15.6459 8.3561 15.5467 8.3987 15.4385C8.4413 15.3303 8.4621 15.2149 8.45998 15.0987V9.39946C8.4621 9.2832 8.4413 9.16781 8.3987 9.05962C8.3561 8.95142 8.29263 8.85221 8.21181 8.7686C8.131 8.685 8.03444 8.61758 7.92776 8.57134C7.82107 8.52509 7.70625 8.50089 7.58999 8.49907H4.85C4.81877 7.22362 5.17438 5.96897 5.87002 4.89946C6.48005 4.11663 7.30294 3.5252 8.24001 3.19829V3.19829ZM18.51 3.19829C18.7221 3.09176 18.8851 2.90803 18.9651 2.68462C19.0452 2.46121 19.0361 2.21604 18.94 1.99907L18.23 0.499071C18.128 0.29845 17.9526 0.145848 17.7403 0.0713367C17.5279 -0.00317432 17.295 0.00575883 17.09 0.0986804C15.9378 0.571639 14.8808 1.24923 13.97 2.09868C12.9711 3.02128 12.2388 4.19606 11.85 5.49907C11.4134 7.16238 11.2214 8.88002 11.2801 10.5987V15.0987C11.2779 15.2149 11.2987 15.3303 11.3413 15.4385C11.3839 15.5467 11.4475 15.6459 11.5283 15.7295C11.6092 15.8131 11.7056 15.8806 11.8123 15.9268C11.919 15.973 12.0338 15.9972 12.15 15.9991H17.87C17.9863 15.9972 18.1011 15.973 18.2078 15.9268C18.3145 15.8806 18.4109 15.8131 18.4917 15.7295C18.5725 15.6459 18.6361 15.5467 18.6787 15.4385C18.7213 15.3303 18.7421 15.2149 18.74 15.0987V9.39946C18.7421 9.2832 18.7213 9.16781 18.6787 9.05962C18.6361 8.95142 18.5725 8.85221 18.4917 8.7686C18.4109 8.685 18.3145 8.61758 18.2078 8.57134C18.1011 8.52509 17.9863 8.50089 17.87 8.49907H15.12C15.0888 7.22362 15.4444 5.96897 16.14 4.89946C16.748 4.11446 17.5716 3.52252 18.51 3.19829V3.19829Z" fill="#35BFFF"/>
</svg>
