<svg xmlns="http://www.w3.org/2000/svg" width="14" height="14" viewBox="0 0 14 14">
  <defs>
    <style>
      .cls-1 {
        fill: #17181e;
        fill-rule: evenodd;
        opacity: 0.25;
      }
    </style>
  </defs>
  <path id="mouse" class="cls-1" d="M926.863,80.842l-2.786-2.787,1.987-1.147a0.468,0.468,0,0,0-.06-0.84l-8.865-3.538a0.469,0.469,0,0,0-.608.609L920.066,82a0.468,0.468,0,0,0,.841.06l1.148-1.988,2.786,2.787a0.462,0.462,0,0,0,.662,0l1.36-1.358A0.468,0.468,0,0,0,926.863,80.842Zm-1.691,1.029-2.886-2.888a0.467,0.467,0,0,0-.331-0.136c-0.021,0-.041,0-0.061,0a0.471,0.471,0,0,0-.345.231l-0.97,1.68L917.8,73.8l6.956,2.775-1.68.972a0.461,0.461,0,0,0-.23.343,0.47,0.47,0,0,0,.133.393l2.887,2.885ZM915.055,70.394a0.468,0.468,0,1,0-.662.661l1.04,1.04a0.468,0.468,0,0,0,.663-0.661Zm0.353,3.236a0.469,0.469,0,0,0-.469-0.468h-1.471a0.468,0.468,0,1,0,0,.936h1.471A0.468,0.468,0,0,0,915.408,73.63Zm-0.19,1.445-1.04,1.041a0.468,0.468,0,0,0,.662.661l1.04-1.041A0.468,0.468,0,0,0,915.218,75.076Zm2.412-3.669a0.467,0.467,0,0,0,.468-0.467v-1.47a0.468,0.468,0,1,0-.936,0v1.47A0.466,0.466,0,0,0,917.63,71.407Zm1.776,0.61a0.473,0.473,0,0,0,.331-0.136l1.04-1.042a0.467,0.467,0,1,0-.662-0.66l-1.04,1.04A0.467,0.467,0,0,0,919.406,72.017Z" transform="translate(-913 -69)"/>
</svg>
