<svg xmlns="http://www.w3.org/2000/svg" width="50" height="50" viewBox="0 0 50 50">
  <defs>
    <style>
      .cls-1 {
        fill: #35bfff;
        fill-rule: evenodd;
      }
    </style>
  </defs>
  <path id="cracks" class="cls-1" d="M616.257,8920H567.743a0.74,0.74,0,0,0-.743.74v48.52a0.74,0.74,0,0,0,.743.74h48.514a0.74,0.74,0,0,0,.743-0.74v-48.52A0.74,0.74,0,0,0,616.257,8920Zm-12.475,1.48c-0.9.22-1.8,0.45-2.706,0.7a69.341,69.341,0,0,0-12.089,4.76,16.955,16.955,0,0,1-2.185-1.66,9.373,9.373,0,0,1-2.666-3.8h19.646Zm-21.19,0c0.722,2.94,3.36,5.16,4.89,6.24a66.676,66.676,0,0,0-8.908,5.66,48.594,48.594,0,0,0-8.976-11.9h12.994Zm-14.107,1c2.134,2.12,6.508,6.82,8.923,11.9a19.791,19.791,0,0,1-8.923,4.91v-16.81Zm0,18.34a20.751,20.751,0,0,0,9.192-4.68c0.043,0.84.078,2.01,0.057,3.45a0.743,0.743,0,0,0,.732.75h0.011a0.745,0.745,0,0,0,.742-0.73c0.034-2.37-.076-4.01-0.138-4.73a54.261,54.261,0,0,1,4.691-3.28,20.054,20.054,0,0,0,.049,3.14,13.933,13.933,0,0,0,3.334,8.16,26.724,26.724,0,0,0-2.565,7.05,53.748,53.748,0,0,0-5.986-2.17c0.261-1.95.42-3.74,0.512-5.32a0.743,0.743,0,1,0-1.483-.09,71.4,71.4,0,0,1-1.51,10.98c-2.91.26-5.975,2.35-7.638,3.66v-16.19h0Zm24.019,13.32c2.837-3.09,7.636-3.26,9.559-3.2a58.5,58.5,0,0,1-1.917,9.52A39.543,39.543,0,0,0,592.5,8954.14Zm3.013,4.01c-6.857,3.92-17.159,4.25-20.411,4.25a74.019,74.019,0,0,0,3.283-13.13A52.71,52.71,0,0,1,595.517,8958.15Zm2.5-8.4a28.105,28.105,0,0,0-7.273-9.76c0.174-.24.346-0.46,0.514-0.67a24.986,24.986,0,0,1,4.072-4.14,49.285,49.285,0,0,1,7.24-2.97,114.463,114.463,0,0,1-.047,13.81c-0.073,1.09-.17,2.25-0.3,3.44A19.156,19.156,0,0,0,598.022,8949.75Zm-1.478.35a10.7,10.7,0,0,0-5.317,3.24,55.608,55.608,0,0,0-4.986-2.65l-0.261-.12a25.983,25.983,0,0,1,3.911-9.37A27.1,27.1,0,0,1,596.544,8950.1Zm-28.059,18.41v-9.57a24.5,24.5,0,0,1,2.619-1.98,12.853,12.853,0,0,1,4.666-2.06A70.922,70.922,0,0,1,571,8968.51h-2.514Zm4.153,0c0.717-1.56,1.357-3.11,1.93-4.63h0.655a63.086,63.086,0,0,0,7.14-.42c5.99-.7,10.813-2.14,14.351-4.29a31.619,31.619,0,0,1,2.9,2.92,23.822,23.822,0,0,1-3.265,6.42H572.638Zm25.526,0a31.46,31.46,0,0,0,3.991-9.73c0.264-1.06.5-2.17,0.718-3.32a18.294,18.294,0,0,1,4.592-1.24c0.042,2.46.387,9.71,2.908,14.29H598.164Zm17.351-14.75a15.251,15.251,0,0,0-1.749-.62,0.743,0.743,0,1,0-.4,1.43,12.616,12.616,0,0,1,2.154.83v13.11h-3.409c-2.762-4.16-3.114-12.06-3.156-14.43a15.69,15.69,0,0,1,2.256.07,0.74,0.74,0,0,0,.819-0.66,0.751,0.751,0,0,0-.657-0.82,18.506,18.506,0,0,0-8.2,1.08c0.379-2.38.661-4.94,0.841-7.65,0.016-.24.03-0.47,0.044-0.71a38.315,38.315,0,0,0,4.245-4.54c0.127-.15.251-0.31,0.374-0.47a13.466,13.466,0,0,0,6.841,5.67v7.71h0Zm-11.48-21.99a28.9,28.9,0,0,1,7.974-1.21,23.934,23.934,0,0,1-4.852,9.34,39.558,39.558,0,0,1-3,3.35C604.371,8937.81,604.138,8933.35,604.035,8931.77Zm11.48,12.66a11.545,11.545,0,0,1-5.857-5.39,22.335,22.335,0,0,0,3.852-8.4,14.617,14.617,0,0,1,2,.34v13.45Zm0-14.97c-3.64-.81-8.167-0.35-13.475,1.35a53,53,0,0,0-5.49,2.13l1.3-2.66a0.742,0.742,0,0,0-1.334-.65l-2.173,4.43a27.413,27.413,0,0,0-4.214,4.29,30.906,30.906,0,0,0-2.2,3.17c-3.225-3.93-2.752-9.5-2.573-10.89,1.254-.75,2.665-1.54,4.216-2.32a67.978,67.978,0,0,1,9.536-3.97l-1.422,2.9a0.744,0.744,0,0,0,1.334.66l2.037-4.16c0.141-.04.282-0.09,0.423-0.13a54.562,54.562,0,0,1,14.034-2.12v7.97h0Z" transform="translate(-567 -8920)"/>
</svg>
