<svg xmlns="http://www.w3.org/2000/svg" width="50" height="50" viewBox="0 0 50 50">
  <defs>
    <style>
      .cls-1 {
        fill: #35bfff;
        fill-rule: evenodd;
      }
    </style>
  </defs>
  <path id="smell" class="cls-1" d="M415,8920a10,10,0,1,0,10,10A10,10,0,0,0,415,8920Zm0,18.34a8.335,8.335,0,1,1,8.33-8.34A8.338,8.338,0,0,1,415,8938.34Zm2.666-12.17-4.422,5.9-0.987-.99a0.834,0.834,0,0,0-1.178,1.18c1.816,1.81,1.806,1.91,2.255,1.91a0.86,0.86,0,0,0,.667-0.33l5-6.67A0.833,0.833,0,1,0,417.67,8926.17Zm-12.376,16.57-5-17.49a7.229,7.229,0,0,0-13.9,0l-5,17.49a8.327,8.327,0,1,0,4.1,16.14,12.438,12.438,0,0,0,15.7,0,8.327,8.327,0,1,0,4.1-16.14h0.006Zm-2.613,14.71a12.344,12.344,0,0,0,1.787-2.62,2.908,2.908,0,1,0,1.374-5.62,0.833,0.833,0,0,0-1.666-.04,10.829,10.829,0,1,1-21.658,0,0.833,0.833,0,0,0-1.666.04,2.909,2.909,0,1,0,1.374,5.62,12.279,12.279,0,0,0,1.787,2.61,6.65,6.65,0,0,1-3.161-12.78,0.838,0.838,0,0,0,.159.82,0.86,0.86,0,0,0,.788.27,0.848,0.848,0,0,0,.631-0.55c11.912-41.7.151-.53,5.568-19.49a5.562,5.562,0,0,1,10.7,0c5.454,19.09-6.366-22.29,5.568,19.5a0.858,0.858,0,0,0,.6.58,0.834,0.834,0,0,0,1-1.04l-0.026-.09a6.654,6.654,0,0,1-3.162,12.79h0Zm3.031-6.58a1.252,1.252,0,0,1,.487,2.2,1.272,1.272,0,0,1-1.068.22,12.654,12.654,0,0,0,.581-2.42h0Zm-24.149,2.42a1.244,1.244,0,0,1-1.068-.23,1.217,1.217,0,0,1-.476-0.98,1.252,1.252,0,0,1,.963-1.21,12.654,12.654,0,0,0,.581,2.42h0Zm3.21,7.79a0.828,0.828,0,0,0-.908-0.18c-0.223.09-.062-0.03-2.769,2.68a0.833,0.833,0,0,0,1.177,1.18l1.078-1.08V8965a3.33,3.33,0,0,1-3.332,3.33h-4.164a0.838,0.838,0,0,0-.833.84,0.83,0.83,0,0,0,.833.83h4.164a5,5,0,0,0,5-5v-1.32l1.077,1.08a0.834,0.834,0,0,0,1.178-1.18Zm26.066,7.25h-4.164a3.33,3.33,0,0,1-3.332-3.33v-1.32l1.077,1.08a0.833,0.833,0,0,0,1.177-1.18l-2.5-2.5a0.828,0.828,0,0,0-.908-0.18c-0.224.09-.063-0.03-2.77,2.68a0.834,0.834,0,0,0,1.178,1.18l1.078-1.08V8965a5,5,0,0,0,5,5h4.165a0.83,0.83,0,0,0,.833-0.83,0.838,0.838,0,0,0-.833-0.84h0Zm-16.9-4.75a0.828,0.828,0,0,0-.908-0.18c-0.223.09-.062-0.03-2.77,2.68a0.834,0.834,0,0,0,1.178,1.18l1.078-1.08v2.99a0.833,0.833,0,0,0,1.666,0v-2.99l1.077,1.08a0.836,0.836,0,0,0,.81.22,0.819,0.819,0,0,0,.595-0.59,0.836,0.836,0,0,0-.227-0.81Z" transform="translate(-375 -8920)"/>
</svg>
