<svg xmlns="http://www.w3.org/2000/svg" width="50" height="50" viewBox="0 0 50 50">
  <defs>
    <style>
      .cls-1 {
        fill: #35bfff;
        fill-rule: evenodd;
      }
    </style>
  </defs>
  <path id="sun" class="cls-1" d="M813.625,8945a0.849,0.849,0,0,0-.849-0.85H801.849a0.85,0.85,0,0,0,0,1.7h10.927A0.849,0.849,0,0,0,813.625,8945Zm36.526-.85H839.225a0.85,0.85,0,0,0,0,1.7h10.926A0.85,0.85,0,0,0,850.151,8944.15Zm-17.707,12.66a0.849,0.849,0,1,0-1.538.72l2.228,4.78a0.847,0.847,0,0,0,.77.49,0.912,0.912,0,0,0,.358-0.08,0.849,0.849,0,0,0,.41-1.13Zm-12.889-23.62a0.849,0.849,0,0,0,.77.49,0.921,0.921,0,0,0,.359-0.08,0.85,0.85,0,0,0,.41-1.13l-2.228-4.78a0.85,0.85,0,0,0-1.539.72Zm17.846,17.13a0.853,0.853,0,0,0,.411,1.13l4.777,2.22a0.767,0.767,0,0,0,.359.08,0.85,0.85,0,0,0,.359-1.62l-4.778-2.22A0.843,0.843,0,0,0,837.4,8950.32Zm-22.8-10.63a0.846,0.846,0,0,0-.41-1.13l-4.778-2.23a0.843,0.843,0,0,0-1.128.41,0.853,0.853,0,0,0,.411,1.13l4.777,2.22a0.779,0.779,0,0,0,.359.09A0.864,0.864,0,0,0,814.6,8939.69Zm6.086,16.71a0.852,0.852,0,0,0-1.129.41l-2.228,4.78a0.85,0.85,0,0,0,.411,1.13,0.912,0.912,0,0,0,.358.08,0.847,0.847,0,0,0,.77-0.49l2.228-4.78A0.85,0.85,0,0,0,820.684,8956.4Zm10.632-22.8a0.913,0.913,0,0,0,.359.08,0.846,0.846,0,0,0,.769-0.49l2.228-4.78a0.849,0.849,0,1,0-1.538-.72l-2.228,4.78A0.851,0.851,0,0,0,831.316,8933.6Zm-14.067,20.15a0.851,0.851,0,0,0-1.2,0l-7.727,7.73a0.849,0.849,0,0,0,0,1.2,0.846,0.846,0,0,0,1.2,0l7.726-7.73A0.847,0.847,0,0,0,817.249,8953.75Zm17.5-17.5a0.846,0.846,0,0,0,1.2,0l7.726-7.73a0.849,0.849,0,0,0-1.2-1.2l-7.726,7.73A0.849,0.849,0,0,0,834.751,8936.25Zm-18.7,0a0.845,0.845,0,0,0,1.2,0,0.847,0.847,0,0,0,0-1.2l-7.726-7.73a0.849,0.849,0,0,0-1.2,1.2Zm19.9,17.5a0.849,0.849,0,0,0-1.2,1.2l7.726,7.73a0.846,0.846,0,0,0,1.2,0,0.849,0.849,0,0,0,0-1.2ZM826,8935.26a9.74,9.74,0,1,0,9.738,9.74A9.751,9.751,0,0,0,826,8935.26Zm0,17.78a8.032,8.032,0,0,1-5.046-1.78c0-.01-0.006-0.01-0.009-0.01-0.108-.09-0.214-0.18-0.317-0.27a0.243,0.243,0,0,0-.014-0.02c-0.1-.09-0.2-0.18-0.3-0.28,0-.01,0-0.01-0.008-0.01-0.1-.1-0.2-0.21-0.292-0.31h0q-0.144-.165-0.279-0.33c-0.012-.02-0.023-0.03-0.035-0.05-0.076-.09-0.149-0.19-0.221-0.29a0.369,0.369,0,0,1-.046-0.07c-0.067-.09-0.132-0.19-0.2-0.28a0.425,0.425,0,0,0-.046-0.07c-0.063-.11-0.123-0.21-0.182-0.31l-0.037-.06c-0.065-.12-0.127-0.24-0.187-0.36,0-.01-0.007-0.01-0.01-0.02a8.22,8.22,0,0,1-.338-0.8c-0.012-.03-0.021-0.06-0.032-0.09-0.036-.11-0.07-0.21-0.1-0.31-0.014-.05-0.026-0.09-0.039-0.14-0.026-.09-0.05-0.18-0.073-0.28-0.013-.05-0.024-0.1-0.036-0.15-0.02-.09-0.038-0.18-0.055-0.27-0.01-.05-0.02-0.11-0.029-0.16-0.015-.09-0.028-0.18-0.04-0.27-0.007-.06-0.014-0.11-0.02-0.17-0.011-.1-0.019-0.2-0.026-0.29,0-.05-0.008-0.1-0.011-0.15-0.008-.14-0.013-0.29-0.013-0.44a8.052,8.052,0,0,1,8.042-8.04c0.149,0,.3,0,0.444.01,0.048,0,.094.01,0.141,0.01l0.3,0.03a0.9,0.9,0,0,1,.163.02,2.548,2.548,0,0,1,.272.04l0.164,0.03c0.089,0.02.178,0.03,0.267,0.05,0.052,0.01.1,0.03,0.156,0.04,0.092,0.02.184,0.05,0.275,0.07a0.709,0.709,0,0,0,.137.04c0.1,0.03.206,0.07,0.308,0.1l0.094,0.03c0.273,0.1.54,0.22,0.8,0.34a0.024,0.024,0,0,0,.023.01c0.119,0.06.238,0.12,0.354,0.19,0.022,0.01.044,0.03,0.066,0.04,0.1,0.06.2,0.11,0.3,0.18a0.322,0.322,0,0,1,.074.05c0.1,0.06.193,0.12,0.287,0.19a0.287,0.287,0,0,1,.066.05q0.148,0.1.291,0.21a0.162,0.162,0,0,0,.045.04c0.113,0.09.223,0.18,0.331,0.28h0c0.106,0.1.209,0.2,0.31,0.29,0,0.01,0,.01.008,0.01,0.1,0.1.194,0.2,0.288,0.31,0,0,.009.01,0.013,0.01,0.093,0.1.183,0.21,0.27,0.32,0,0,0,0,.008.01A8.031,8.031,0,0,1,826,8953.04Zm-17.308-.91a0.85,0.85,0,0,0,.359,1.62,0.772,0.772,0,0,0,.359-0.08l4.777-2.22a0.853,0.853,0,0,0,.411-1.13,0.843,0.843,0,0,0-1.128-.41Zm34.614-14.26a0.853,0.853,0,0,0,.411-1.13,0.843,0.843,0,0,0-1.128-.41l-4.778,2.23a0.846,0.846,0,0,0-.41,1.13,0.864,0.864,0,0,0,.769.49,0.779,0.779,0,0,0,.359-0.09ZM826,8957.93a0.849,0.849,0,0,0-.849.85v10.37a0.849,0.849,0,1,0,1.7,0v-10.37A0.849,0.849,0,0,0,826,8957.93Zm0-25.86a0.849,0.849,0,0,0,.849-0.85v-10.37a0.849,0.849,0,1,0-1.7,0v10.37A0.849,0.849,0,0,0,826,8932.07Zm-4.085,8.63a5.2,5.2,0,0,0-2.469,4.33,0.852,0.852,0,0,0,.849.83h0.02a0.861,0.861,0,0,0,.829-0.87,3.492,3.492,0,0,1,1.66-2.85A0.846,0.846,0,0,0,821.915,8940.7Z" transform="translate(-801 -8920)"/>
</svg>
